<svg width="79.20000305175782px" height="119.20000610351562px" xmlns="http://www.w3.org/2000/svg" viewBox="210.3999984741211 15.39999694824219 79.20000305175782 119.20000610351562" style="background: rgb(11, 14, 20);" preserveAspectRatio="xMidYMid"><defs><filter id="editing-hover" x="-100%" y="-100%" width="300%" height="300%"><feFlood flood-color="rgba(100%,100%,100%,0.169)" result="flood"></feFlood><feComposite operator="in" in2="SourceAlpha" in="flood" result="shadow"></feComposite><feOffset dx="-4" dy="-4" in="SourceGraphic" result="offset-1"></feOffset><feOffset dx="4" dy="4" in="shadow" result="offset-2"></feOffset><feMerge><feMergeNode in="offset-2"></feMergeNode><feMergeNode in="offset-1"></feMergeNode></feMerge></filter></defs><g filter="url(#editing-hover)"><g transform="translate(228.81685522198677, 87.47999572753906)"><path d="M35.84-24.70L43.01-24.70L43.01-24.70Q40.32-20.54 29.44 0L29.44 0L21.06 0.13L21.06 0.13Q20.93-1.92 20.58-5.60L20.58-5.60L20.58-5.60Q20.22-9.28 19.65-14.59L19.65-14.59L19.65-14.59Q17.79-11.33 15.84-7.71L15.84-7.71L15.84-7.71Q13.89-4.10 11.84 0L11.84 0L3.58 0L3.58 0Q3.26-3.33 2.94-6.24L2.94-6.24L2.94-6.24Q2.62-9.15 2.30-11.58L2.30-11.58L2.30-11.58Q0.96-23.30 0.45-24.77L0.45-24.77L7.49-24.77L7.49-24.77Q7.81-17.98 8.83-5.82L8.83-5.82L8.83-5.82Q13.50-13.50 18.24-24.77L18.24-24.77L18.24-24.77Q25.28-24.77 25.22-24.83L25.22-24.83L25.22-24.83Q25.34-22.40 25.41-19.97L25.41-19.97L25.41-19.97Q25.47-17.54 25.54-15.10L25.54-15.10L25.54-15.10Q25.73-9.54 26.30-5.82L26.30-5.82L26.30-5.82Q29.44-11.46 31.81-16.16L31.81-16.16L31.81-16.16Q34.18-20.86 35.84-24.70L35.84-24.70Z" fill="#ffffff"></path></g></g><style>text {
  font-size: 64px;
  font-family: Arial Black;
  dominant-baseline: central;
  text-anchor: middle;
}</style></svg>